<svg width="70" height="70" viewBox="0 0 70 70" fill="none" xmlns="http://www.w3.org/2000/svg">
<rect width="70" height="70" fill="#232831"/>
<rect x="16" y="12.9375" width="6" height="54" rx="2" fill="#7E8891"/>
<rect x="32" y="18.9375" width="6" height="7" rx="2" fill="#7E8891"/>
<rect x="48" y="12.9375" width="6" height="54" rx="2" fill="#7E8891"/>
<rect x="24" y="37.9375" width="6" height="29" rx="2" fill="url(#paint0_linear_3_625)"/>
<rect x="40" y="37.9375" width="6" height="29" rx="2" fill="url(#paint1_linear_3_625)"/>
<path d="M32 36.9375C32 35.8329 32.8954 34.9375 34 34.9375H36C37.1046 34.9375 38 35.8329 38 36.9375L38 64.9375C38 66.0421 37.1046 66.9375 36 66.9375H34C32.8954 66.9375 32 66.0421 32 64.9375L32 36.9375Z" fill="url(#paint2_linear_3_625)"/>
<rect x="8" y="52.9375" width="6" height="14" rx="2" fill="url(#paint3_linear_3_625)"/>
<rect y="58.9375" width="6" height="8" rx="2" fill="url(#paint4_linear_3_625)"/>
<rect width="6" height="14" rx="2" transform="matrix(-1 0 0 1 62 52.9375)" fill="url(#paint5_linear_3_625)"/>
<rect width="6" height="8" rx="2" transform="matrix(-1 0 0 1 70 58.9375)" fill="url(#paint6_linear_3_625)"/>
<rect x="63" y="24.9375" width="6" height="56" rx="2" transform="rotate(90 63 24.9375)" fill="#7E8891"/>
<path d="M35 11.2102C12.7999 11.2102 1.7 4.9375 1.7 4.9375L1.69995 14.1193L6.87995 15.5739L9.09995 19.9375H61L62.48 15.5739L68.5 14.1193V4.9375C68.5 4.9375 57.2 11.2102 35 11.2102Z" fill="#848D96" stroke="#7E8891"/>
<path d="M35 11.4375C12.8 11.4375 1.68753 4 1.68753 4L1.6875 10C1.6875 10 18.72 15.9375 35 15.9375C51.28 15.9375 68.5 10.1484 68.5 10.1484V4C68.5 4 57.2 11.4375 35 11.4375Z" fill="#DCDEE0" stroke="#DCDEE0"/>
<defs>
<linearGradient id="paint0_linear_3_625" x1="27" y1="37.9375" x2="27" y2="66.9375" gradientUnits="userSpaceOnUse">
<stop offset="0.23" stop-color="#00A1FF"/>
<stop offset="1" stop-color="#232831"/>
</linearGradient>
<linearGradient id="paint1_linear_3_625" x1="43" y1="37.9375" x2="43" y2="66.9375" gradientUnits="userSpaceOnUse">
<stop offset="0.23" stop-color="#00A1FF"/>
<stop offset="1" stop-color="#232831"/>
</linearGradient>
<linearGradient id="paint2_linear_3_625" x1="35" y1="34.9375" x2="35" y2="66.9375" gradientUnits="userSpaceOnUse">
<stop offset="0.23" stop-color="#00A1FF"/>
<stop offset="1" stop-color="#232831"/>
</linearGradient>
<linearGradient id="paint3_linear_3_625" x1="11" y1="52.9375" x2="11" y2="66.9375" gradientUnits="userSpaceOnUse">
<stop offset="0.11" stop-color="#00A1FF"/>
<stop offset="1" stop-color="#232831"/>
</linearGradient>
<linearGradient id="paint4_linear_3_625" x1="3" y1="58.9375" x2="3" y2="66.9375" gradientUnits="userSpaceOnUse">
<stop stop-color="#00A1FF"/>
<stop offset="1" stop-color="#232831"/>
</linearGradient>
<linearGradient id="paint5_linear_3_625" x1="3" y1="0" x2="3" y2="14" gradientUnits="userSpaceOnUse">
<stop offset="0.11" stop-color="#00A1FF"/>
<stop offset="1" stop-color="#232831"/>
</linearGradient>
<linearGradient id="paint6_linear_3_625" x1="3" y1="0" x2="3" y2="8" gradientUnits="userSpaceOnUse">
<stop stop-color="#00A1FF"/>
<stop offset="1" stop-color="#232831"/>
</linearGradient>
</defs>
</svg>
