<svg width="80" height="80" viewBox="0 0 80 80" fill="none" xmlns="http://www.w3.org/2000/svg">
<rect width="80" height="80" fill="white"/>
<rect x="21" y="17" width="6" height="54" rx="2" fill="#1A2835"/>
<rect x="37" y="23" width="6" height="7" fill="#1A2835"/>
<rect x="53" y="17" width="6" height="54" rx="2" fill="#1A2835"/>
<rect x="29" y="42" width="6" height="29" rx="2" fill="url(#paint0_linear_1_180)"/>
<rect x="45" y="42" width="6" height="29" rx="2" fill="url(#paint1_linear_1_180)"/>
<path d="M37 41C37 39.8954 37.8954 39 39 39H41C42.1046 39 43 39.8954 43 41L43 69C43 70.1046 42.1046 71 41 71H39C37.8954 71 37 70.1046 37 69L37 41Z" fill="url(#paint2_linear_1_180)"/>
<rect x="13" y="57" width="6" height="14" rx="2" fill="url(#paint3_linear_1_180)"/>
<rect x="5" y="63" width="6" height="8" rx="2" fill="url(#paint4_linear_1_180)"/>
<rect width="6" height="14" rx="2" transform="matrix(-1 0 0 1 67 57)" fill="url(#paint5_linear_1_180)"/>
<rect width="6" height="8" rx="2" transform="matrix(-1 0 0 1 75 63)" fill="url(#paint6_linear_1_180)"/>
<rect x="68" y="29" width="6" height="56" rx="2" transform="rotate(90 68 29)" fill="#1A2835"/>
<path d="M40 15.2727C17.8 15.2727 3 8 3 8L6.7 18.1818L11.88 19.6364L14.1 24H66L67.48 19.6364L74.04 18.1818L77 8C77 8 62.2 15.2727 40 15.2727Z" fill="#1A2835" stroke="#1A2835"/>
<path d="M40 15.5C17.8 15.5 3 8 3 8L5.22 14C5.22 14 23.72 20 40 20C56.28 20 75.2656 14.2109 75.2656 14.2109L77 8C77 8 62.2 15.5 40 15.5Z" fill="#455564" stroke="#445564"/>
<defs>
<linearGradient id="paint0_linear_1_180" x1="32" y1="42" x2="32" y2="71" gradientUnits="userSpaceOnUse">
<stop offset="0.265" stop-color="#00A1FF"/>
<stop offset="1" stop-color="white" stop-opacity="0.33"/>
</linearGradient>
<linearGradient id="paint1_linear_1_180" x1="48" y1="42" x2="48" y2="71" gradientUnits="userSpaceOnUse">
<stop offset="0.265" stop-color="#00A1FF"/>
<stop offset="1" stop-color="white" stop-opacity="0.33"/>
</linearGradient>
<linearGradient id="paint2_linear_1_180" x1="40" y1="39" x2="40" y2="71" gradientUnits="userSpaceOnUse">
<stop offset="0.265" stop-color="#00A1FF"/>
<stop offset="1" stop-color="white" stop-opacity="0.33"/>
</linearGradient>
<linearGradient id="paint3_linear_1_180" x1="16" y1="57" x2="16" y2="71" gradientUnits="userSpaceOnUse">
<stop offset="0.145" stop-color="#009EFA"/>
<stop offset="1" stop-color="white" stop-opacity="0"/>
</linearGradient>
<linearGradient id="paint4_linear_1_180" x1="8" y1="63" x2="8" y2="71" gradientUnits="userSpaceOnUse">
<stop stop-color="#00A1FF"/>
<stop offset="0.925" stop-color="white" stop-opacity="0"/>
</linearGradient>
<linearGradient id="paint5_linear_1_180" x1="3" y1="0" x2="3" y2="14" gradientUnits="userSpaceOnUse">
<stop offset="0.145" stop-color="#009EFA"/>
<stop offset="1" stop-color="white" stop-opacity="0"/>
</linearGradient>
<linearGradient id="paint6_linear_1_180" x1="3" y1="0" x2="3" y2="8" gradientUnits="userSpaceOnUse">
<stop stop-color="#00A1FF"/>
<stop offset="0.925" stop-color="white" stop-opacity="0"/>
</linearGradient>
</defs>
</svg>
