<svg width="301" height="70" viewBox="0 0 301 70" fill="none" xmlns="http://www.w3.org/2000/svg">
<g clip-path="url(#clip0_3_578)">
<rect width="301" height="70" fill="black"/>
<rect x="18" y="11.9375" width="6" height="54" rx="2" fill="#3D4349"/>
<rect x="34" y="17.9375" width="6" height="7" rx="2" fill="#3D4349"/>
<rect x="50" y="11.9375" width="6" height="54" rx="2" fill="#3D4349"/>
<rect x="26" y="36.9375" width="6" height="29" rx="2" fill="url(#paint0_linear_3_578)"/>
<rect x="42" y="36.9375" width="6" height="29" rx="2" fill="url(#paint1_linear_3_578)"/>
<path d="M34 35.9375C34 34.8329 34.8954 33.9375 36 33.9375H38C39.1046 33.9375 40 34.8329 40 35.9375L40 63.9375C40 65.0421 39.1046 65.9375 38 65.9375H36C34.8954 65.9375 34 65.0421 34 63.9375L34 35.9375Z" fill="url(#paint2_linear_3_578)"/>
<rect x="10" y="51.9375" width="6" height="14" rx="2" fill="url(#paint3_linear_3_578)"/>
<rect x="2" y="57.9375" width="6" height="8" rx="2" fill="url(#paint4_linear_3_578)"/>
<rect width="6" height="14" rx="2" transform="matrix(-1 0 0 1 64 51.9375)" fill="url(#paint5_linear_3_578)"/>
<rect width="6" height="8" rx="2" transform="matrix(-1 0 0 1 72 57.9375)" fill="url(#paint6_linear_3_578)"/>
<rect x="65" y="23.9375" width="6" height="56" rx="2" transform="rotate(90 65 23.9375)" fill="#3D4349"/>
<path d="M37 10.2102C21.5943 10.2102 11.5341 7.18951 6.81913 5.34052C5.39344 4.78142 3.69999 5.83356 3.69998 7.36496L3.69996 11.6036C3.69995 12.4999 4.29631 13.2868 5.15927 13.5291L8.0357 14.3368C8.57381 14.4879 9.02414 14.8573 9.27758 15.3554L10.5438 17.8444C10.8851 18.5151 11.5739 18.9375 12.3264 18.9375H61.5664C62.4234 18.9375 63.1851 18.3915 63.4604 17.5799L64.1262 15.6169C64.3464 14.9675 64.884 14.4762 65.5505 14.3152L68.9697 13.4891C69.8675 13.2721 70.5 12.4686 70.5 11.545V7.33519C70.5 5.81053 68.8244 4.76146 67.4035 5.31435C62.6582 7.16086 52.4785 10.2102 37 10.2102Z" fill="#3D4349"/>
<path d="M37 10.4375C14.8 10.4375 3.68753 3 3.68753 3L3.6875 9C3.6875 9 20.72 14.9375 37 14.9375C53.28 14.9375 70.5 9.14844 70.5 9.14844V3C70.5 3 59.2 10.4375 37 10.4375Z" fill="#9EA5AD" stroke="#9EA5AD"/>
<path d="M86.224 53.9375V20.8175H99.088C107.344 20.8175 111.472 24.9775 111.472 33.2975V41.4575C111.472 49.7775 107.344 53.9375 99.088 53.9375H86.224ZM91.072 49.5215H99.328C104.192 49.5215 106.624 47.0895 106.624 42.2255V32.5295C106.624 27.6655 104.192 25.2335 99.328 25.2335H91.072V49.5215ZM124.511 53.9375C119.583 53.9375 117.119 51.4895 117.119 46.5935C117.119 41.6975 119.583 39.2495 124.511 39.2495H132.623V35.7455C132.623 33.8895 131.695 32.9615 129.839 32.9615H119.567V30.5135L121.775 28.8815H129.935C134.831 28.8815 137.279 31.3295 137.279 36.2255V53.9375H124.511ZM121.775 47.0255C121.775 48.9135 122.719 49.8575 124.607 49.8575H132.623V42.8975H124.607C122.719 42.8975 121.775 43.8415 121.775 45.7295V47.0255ZM144.38 46.5455V20.8175H149.036V28.8815H157.916V32.9615H149.036V47.0255C149.036 48.9135 149.98 49.8575 151.868 49.8575H158.396V52.3055L156.188 53.9375H151.724C146.828 53.9375 144.38 51.4735 144.38 46.5455ZM169.933 53.9375C165.005 53.9375 162.541 51.4895 162.541 46.5935C162.541 41.6975 165.005 39.2495 169.933 39.2495H178.045V35.7455C178.045 33.8895 177.117 32.9615 175.261 32.9615H164.989V30.5135L167.197 28.8815H175.357C180.253 28.8815 182.701 31.3295 182.701 36.2255V53.9375H169.933ZM167.197 47.0255C167.197 48.9135 168.141 49.8575 170.029 49.8575H178.045V42.8975H170.029C168.141 42.8975 167.197 43.8415 167.197 45.7295V47.0255Z" fill="#9EA5AD"/>
<path d="M187.354 29.6495L187.93 28.8815H191.77L196.522 49.8575H197.098L202.762 28.8815H207.994L213.658 49.8575H214.234L218.986 28.8815H222.826L223.354 29.6495L217.738 53.9375H210.49L205.354 34.3055L200.266 53.9375H193.018L187.354 29.6495ZM233.823 53.9375C228.895 53.9375 226.431 51.4895 226.431 46.5935C226.431 41.6975 228.895 39.2495 233.823 39.2495H241.935V35.7455C241.935 33.8895 241.007 32.9615 239.151 32.9615H228.879V30.5135L231.087 28.8815H239.247C244.143 28.8815 246.591 31.3295 246.591 36.2255V53.9375H233.823ZM231.087 47.0255C231.087 48.9135 232.031 49.8575 233.919 49.8575H241.935V42.8975H233.919C232.031 42.8975 231.087 43.8415 231.087 45.7295V47.0255ZM252.445 53.9375V50.3375L266.029 32.9615H252.925V28.8815H271.933V32.4335L258.349 49.8575H272.413V53.9375H252.445ZM284.495 53.9375C279.567 53.9375 277.103 51.4895 277.103 46.5935C277.103 41.6975 279.567 39.2495 284.495 39.2495H292.607V35.7455C292.607 33.8895 291.679 32.9615 289.823 32.9615H279.551V30.5135L281.759 28.8815H289.919C294.815 28.8815 297.263 31.3295 297.263 36.2255V53.9375H284.495ZM281.759 47.0255C281.759 48.9135 282.703 49.8575 284.591 49.8575H292.607V42.8975H284.591C282.703 42.8975 281.759 43.8415 281.759 45.7295V47.0255Z" fill="#01A2FF"/>
</g>
<defs>
<linearGradient id="paint0_linear_3_578" x1="29" y1="36.9375" x2="29" y2="65.9375" gradientUnits="userSpaceOnUse">
<stop offset="0.23" stop-color="#00A1FF"/>
<stop offset="1"/>
</linearGradient>
<linearGradient id="paint1_linear_3_578" x1="45" y1="36.9375" x2="45" y2="65.9375" gradientUnits="userSpaceOnUse">
<stop offset="0.23" stop-color="#00A1FF"/>
<stop offset="1"/>
</linearGradient>
<linearGradient id="paint2_linear_3_578" x1="37" y1="33.9375" x2="37" y2="65.9375" gradientUnits="userSpaceOnUse">
<stop offset="0.23" stop-color="#00A1FF"/>
<stop offset="1"/>
</linearGradient>
<linearGradient id="paint3_linear_3_578" x1="13" y1="51.9375" x2="13" y2="65.9375" gradientUnits="userSpaceOnUse">
<stop offset="0.11" stop-color="#00A1FF"/>
<stop offset="1"/>
</linearGradient>
<linearGradient id="paint4_linear_3_578" x1="5" y1="57.9375" x2="5" y2="65.9375" gradientUnits="userSpaceOnUse">
<stop stop-color="#00A1FF"/>
<stop offset="1"/>
</linearGradient>
<linearGradient id="paint5_linear_3_578" x1="3" y1="0" x2="3" y2="14" gradientUnits="userSpaceOnUse">
<stop offset="0.11" stop-color="#00A1FF"/>
<stop offset="1"/>
</linearGradient>
<linearGradient id="paint6_linear_3_578" x1="3" y1="0" x2="3" y2="8" gradientUnits="userSpaceOnUse">
<stop stop-color="#00A1FF"/>
<stop offset="1"/>
</linearGradient>
<clipPath id="clip0_3_578">
<rect width="301" height="70" fill="white"/>
</clipPath>
</defs>
</svg>
